# xmcd
# 
# Track frame offsets:
#     150
#     21160
#     45357
#     72650
#     101775
#     123075
#     141040
#     163165
#     181270
#     209437
# 
# Disc length: 3038
# 
# Revision: 3
# Processed by: cddbd v1.5.2PL0 Copyright (c) Steve Scherf et al.
# Submitted via: BonkEnc v1.0
# 
DISCID=8c0bdc0a
DTITLE=The Black Crowes - The Southern Harmony and Musical Companion
DYEAR=1992
DGENRE=Rock
TTITLE0=Sting Me
TTITLE1=Remedy
TTITLE2=Thorn In My Pride
TTITLE3=Bad Luck Blue Eyes Goodbye
TTITLE4=Sometimes Salvation
TTITLE5=Hotel Illness
TTITLE6=Black Moon Creeping
TTITLE7=No Speak No Slave
TTITLE8=My Morning Song
TTITLE9=Time Will Tell
EXTD=-- Brainiak ---
EXTT0=
EXTT1=
EXTT2=
EXTT3=
EXTT4=
EXTT5=
EXTT6=
EXTT7=
EXTT8=
EXTT9=
PLAYORDER=
